# xmcd
#
# Track frame offsets:
#	150
#	17795
#	32782
#	52048
#	69976
#	86628
#	115084
#	133008
#	146290
#	162240
#	178872
#	205749
#	221647
#	246341
#	261251
#	280774
#	298182
#	317740
#
# Disc length: 4434
#
# Revision: 1
# Processed by: cddbd v1.5.1PL0 Copyright (c) Steve Scherf et al.
# Submitted via: dBpowerAMP V4.0
# Normalized: r0:DSETVAR2
#
DISCID=15115012
DTITLE=Various Artist - Platinum Series 29
DYEAR=1900
DGENRE=
TTITLE0=Janet Jackson - When I Think Of You
TTITLE1=M - Pop Musik
TTITLE2=Mary Jane Girls - In My House
TTITLE3=Michael Sembello - Maniac
TTITLE4=Olivia Newton John - Physical
TTITLE5=Paul Hardcastle - 19
TTITLE6=Pointer Sisters - Jump
TTITLE7=Prince - I Wanna Be Your Lover
TTITLE8=Rick Astley - Never Gonna Give You Up
TTITLE9=Shelia E - Glamorous Life
TTITLE10=Soul II Soul - Keep On Movin'
TTITLE11=Terence Trent D'arby - Wishing Well
TTITLE12=The Time - Jungle Love
TTITLE13=Toto - Rosanna
TTITLE14=Brooks and Dunn - Neon Moon
TTITLE15=Collin Raye - Love Me
TTITLE16=Garth Brooks - Shameless
TTITLE17=George Strait - All My Ex's Live In Texas
EXTD=
EXTT0=
EXTT1=
EXTT2=
EXTT3=
EXTT4=
EXTT5=
EXTT6=
EXTT7=
EXTT8=
EXTT9=
EXTT10=
EXTT11=
EXTT12=
EXTT13=
EXTT14=
EXTT15=
EXTT16=
EXTT17=
PLAYORDER=
